<mxfile host="app.diagrams.net" modified="2023-12-26T21:34:30.968Z" agent="Mozilla/5.0 (Windows NT 10.0; Win64; x64) AppleWebKit/537.36 (KHTML, like Gecko) Chrome/120.0.0.0 Safari/537.36" version="22.1.11" etag="L3j1MLTFfcpniRucmQvo" type="github">
  <diagram name="Страница — 1" id="-VhZ8SbsSb6Y2H6zKpzR">
    <mxGraphModel>
      <root>
        <mxCell id="0" />
        <mxCell id="1" parent="0" />
      </root>
    </mxGraphModel>
  </diagram>
</mxfile>
